<svg width="500" height="500" viewBox="0 0 500 500" fill="none" xmlns="http://www.w3.org/2000/svg">
<rect width="500" height="500" fill="#FBF6F0"/>
<path d="M268.807 155.212C267.399 179.128 266.695 191.086 273.269 193.809C279.842 196.532 287.801 187.58 303.719 169.676L359.658 106.758C366.267 99.3252 369.571 95.6085 373.884 95.482C378.197 95.3555 381.714 98.872 388.747 105.905L394.102 111.26C401.136 118.294 404.653 121.812 404.526 126.125C404.399 130.439 400.682 133.743 393.246 140.351L330.328 196.272C312.418 212.189 303.464 220.148 306.186 226.722C308.909 233.296 320.869 232.593 344.788 231.186L428.826 226.245C438.756 225.661 443.721 225.369 446.86 228.33C450 231.29 450 236.264 450 246.211V253.788C450 263.736 450 268.709 446.86 271.67C443.72 274.63 438.755 274.338 428.825 273.754L344.785 268.807C320.867 267.399 308.908 266.695 306.184 273.269C303.461 279.843 312.415 287.802 330.322 303.72L393.247 359.656C400.682 366.266 404.4 369.57 404.526 373.884C404.652 378.198 401.135 381.715 394.099 388.748L388.739 394.107C381.705 401.139 378.188 404.655 373.875 404.528C369.562 404.401 366.258 400.684 359.65 393.25L303.721 330.327C287.803 312.418 279.843 303.463 273.27 306.186C266.696 308.909 267.399 320.869 268.807 344.789L273.754 428.825C274.338 438.755 274.63 443.72 271.67 446.86C268.709 450 263.736 450 253.788 450H246.21C236.263 450 231.29 450 228.33 446.86C225.369 443.721 225.661 438.756 226.245 428.826L231.186 344.788C232.593 320.869 233.296 308.909 226.722 306.186C220.148 303.464 212.189 312.418 196.272 330.328L140.351 393.246C133.743 400.682 130.439 404.399 126.125 404.526C121.812 404.653 118.294 401.136 111.26 394.102L105.905 388.747C98.872 381.714 95.3555 378.197 95.482 373.884C95.6085 369.571 99.3252 366.267 106.758 359.658L169.676 303.719C187.58 287.801 196.533 279.842 193.809 273.269C191.086 266.695 179.128 267.399 155.212 268.807L71.1752 273.754C61.2449 274.338 56.2796 274.63 53.1398 271.67C50 268.709 50 263.736 50 253.788V246.211C50 236.264 50 231.29 53.1396 228.33C56.2792 225.369 61.2441 225.661 71.174 226.245L155.206 231.186C179.124 232.593 191.083 233.296 193.806 226.722C196.528 220.148 187.574 212.19 169.666 196.272L106.755 140.354C99.3188 133.744 95.6008 130.439 95.4743 126.126C95.3478 121.812 98.8657 118.295 105.901 111.261L111.262 105.902C118.295 98.8705 121.812 95.3546 126.125 95.4816C130.438 95.6086 133.742 99.3254 140.35 106.759L196.273 169.671C212.19 187.577 220.149 196.53 226.722 193.807C233.296 191.085 232.593 179.126 231.187 155.209L226.245 71.174C225.661 61.2442 225.369 56.2792 228.33 53.1396C231.29 50 236.264 50 246.211 50H253.788C263.736 50 268.709 50 271.67 53.1398C274.63 56.2797 274.338 61.2448 273.754 71.1752L268.807 155.212Z" fill="#406A66"/>
</svg>
