<svg width="400" height="400" viewBox="0 0 400 400" fill="none" xmlns="http://www.w3.org/2000/svg">
<path d="M218.807 105.212C217.399 129.128 216.695 141.086 223.269 143.809C229.842 146.532 237.801 137.58 253.719 119.676L309.658 56.7584C316.267 49.3252 319.571 45.6085 323.884 45.482C328.197 45.3555 331.714 48.872 338.747 55.9051L344.102 61.2603C351.136 68.2945 354.653 71.8115 354.526 76.1252C354.399 80.4388 350.682 83.743 343.246 90.3515L280.328 146.272C262.418 162.189 253.464 170.148 256.186 176.722C258.909 183.296 270.869 182.593 294.788 181.186L378.826 176.245C388.756 175.661 393.721 175.369 396.86 178.33C400 181.29 400 186.264 400 196.211V203.788C400 213.736 400 218.709 396.86 221.67C393.72 224.63 388.755 224.338 378.825 223.754L294.785 218.807C270.867 217.399 258.908 216.695 256.184 223.269C253.461 229.843 262.415 237.802 280.322 253.72L343.247 309.656C350.682 316.266 354.4 319.57 354.526 323.884C354.652 328.198 351.135 331.715 344.099 338.748L338.739 344.107C331.705 351.139 328.188 354.655 323.875 354.528C319.562 354.401 316.258 350.684 309.65 343.25L253.721 280.327C237.803 262.418 229.843 253.463 223.27 256.186C216.696 258.909 217.399 270.869 218.807 294.789L223.754 378.825C224.338 388.755 224.63 393.72 221.67 396.86C218.709 400 213.736 400 203.788 400H196.21C186.263 400 181.29 400 178.33 396.86C175.369 393.721 175.661 388.756 176.245 378.826L181.186 294.788C182.593 270.869 183.296 258.909 176.722 256.186C170.148 253.464 162.189 262.418 146.272 280.328L90.3515 343.246C83.743 350.682 80.4388 354.399 76.1252 354.526C71.8116 354.653 68.2945 351.136 61.2603 344.102L55.9051 338.747C48.872 331.714 45.3555 328.197 45.482 323.884C45.6085 319.571 49.3252 316.267 56.7584 309.658L119.676 253.719C137.58 237.801 146.533 229.842 143.809 223.269C141.086 216.695 129.128 217.399 105.212 218.807L21.1752 223.754C11.2449 224.338 6.27963 224.63 3.1398 221.67C-2.64645e-05 218.709 0 213.736 0 203.788V196.211C0 186.264 -3.79086e-05 181.29 3.13957 178.33C6.27918 175.369 11.2441 175.661 21.174 176.245L105.206 181.186C129.124 182.593 141.083 183.296 143.806 176.722C146.528 170.148 137.574 162.19 119.666 146.272L56.7547 90.3535C49.3188 83.7442 45.6008 80.4395 45.4743 76.1255C45.3478 71.8116 48.8657 68.2947 55.9014 61.2609L61.2615 55.9023C68.2953 48.8705 71.8121 45.3546 76.1251 45.4816C80.4381 45.6086 83.7419 49.3254 90.3497 56.7589L146.273 119.671C162.19 137.577 170.149 146.53 176.722 143.807C183.296 141.085 182.593 129.126 181.187 105.209L176.245 21.174C175.661 11.2442 175.369 6.27922 178.33 3.13961C181.29 0 186.264 0 196.211 0H203.788C213.736 0 218.709 0 221.67 3.13983C224.63 6.27965 224.338 11.2448 223.754 21.1752L218.807 105.212Z" fill="#406A66"/>
</svg>
